{"title":"æ‹‰éº—èŽŽ.Larisa-1980-Elem.Klimov","uid":10607960,"size":254129566,"categoryP":"video","categoryS":"movies","magnet":"?xt=urn:btih:5b1f16c911063a4b20a1fdfc6b5a911b6c275cee&amp;dn=%E6%8B%89%E9%BA%97%E8%8E%8E.Larisa-1980-Elem.Klimov&amp;tr=udp%3A%2F%2Ftracker.openbittorrent.com%3A80&amp;tr=udp%3A%2F%2Fopen.demonii.com%3A1337&amp;tr=udp%3A%2F%2Ftracker.coppersurfer.tk%3A6969&amp;tr=udp%3A%2F%2Fexodus.desync.com%3A6969","seeders":1,"leechers":1,"uploader":"app1985","files":-1,"time":1406005590,"description":" &lt;a href=&quot;http://www.imdb.com/title/tt0081030/&quot; rel=&quot;nofollow&quot; target=&quot;_NEW&quot;&gt;http://www.imdb.com/title/tt0081030/&lt;/a&gt;\n\n\nplot (from IMDB):\n\nA loving film tribute to Russian filmmaker Larisa Shepitko, who died tragically in a car accident in 1979 at the age of 40. This documentary by her husband, Elem Klimov, includes excerpts from all of Shepitko's films, and her own voice is heard talking about her life and art. \n\n\n\n\nScreens:\n &lt;a href=&quot;\nhttp://bayimg.com/GAPdDAaFG&quot; rel=&quot;nofollow&quot; target=&quot;_NEW&quot;&gt;\nhttp://bayimg.com/GAPdDAaFG&lt;/a&gt;\n &lt;a href=&quot;\nhttp://bayimg.com/GAPdGaafg&quot; rel=&quot;nofollow&quot; target=&quot;_NEW&quot;&gt;\nhttp://bayimg.com/GAPdGaafg&lt;/a&gt;\n\n\n\nGeneral\nComplete name                  : Larisa-1980-Elem.Klimov.avi\nFormat                         : AVI\nFormat/Info                    : Audio Video Interleave\nFile size                      : 242 MiB\nDuration                       : 19mn 51s\nOverall bit rate               : 1 702 Kbps\n\nVideo\nID                             : 0\nFormat                         : MPEG-4 Visual\nFormat profile                 : Simple@L3\nFormat settings, BVOP          : No\nFormat settings, QPel          : No\nFormat settings, GMC           : No warppoints\nFormat settings, Matrix        : Default (H.263)\nCodec ID                       : XVID\nCodec ID/Hint                  : XviD\nDuration                       : 19mn 51s\nSource duration                : 19mn 51s\nBit rate                       : 1 499 Kbps\nWidth                          : 720 pixels\nHeight                         : 544 pixels\nDisplay aspect ratio           : 4:3\nFrame rate                     : 25.000 fps\nColor space                    : YUV\nChroma subsampling             : 4:2:0\nBit depth                      : 8 bits\nScan type                      : Progressive\nCompression mode               : Lossy\nBits/(Pixel*Frame)             : 0.153\nStream size                    : 213 MiB (88%)\nWriting library                : XviD 1.1.2 (UTC 2006-11-01)\n\nAudio\nID                             : 1\nFormat                         : AC-3\nFormat/Info                    : Audio Coding 3\nMode extension                 : CM (complete main)\nFormat settings, Endianness    : Big\nCodec ID                       : 2000\nDuration                       : 19mn 51s\nBit rate mode                  : Constant\nBit rate                       : 192 Kbps\nChannel(s)                     : 2 channels\nChannel positions              : Front: L R\nSampling rate                  : 48.0 KHz\nBit depth                      : 16 bits\nCompression mode               : Lossy\nStream size                    : 27.3 MiB (11%)\nAlignment                      : Aligned on interleaves\nInterleave, duration           : 32 ms (0.80 video frame)\nInterleave, preload duration   : 928 ms\n\n","torrent":{"xt":"urn:btih:5b1f16c911063a4b20a1fdfc6b5a911b6c275cee","amp;dn":"%E6%8B%89%E9%BA%97%E8%8E%8E.Larisa-1980-Elem.Klimov","amp;tr":["udp%3A%2F%2Ftracker.openbittorrent.com%3A80","udp%3A%2F%2Fopen.demonii.com%3A1337","udp%3A%2F%2Ftracker.coppersurfer.tk%3A6969","udp%3A%2F%2Fexodus.desync.com%3A6969"],"infoHash":"5b1f16c911063a4b20a1fdfc6b5a911b6c275cee","infoHashBuffer":{"type":"Buffer","data":[91,31,22,201,17,6,58,75,32,161,253,252,107,90,145,27,108,39,92,238]},"announce":[],"urlList":[]}}